<?xml version="1.0" encoding="UTF-8" standalone="no"?>
<!-- Created with Inkscape (http://www.inkscape.org/) -->

<svg
   version="1.1"
   id="svg1"
   width="1066.6667"
   height="800"
   viewBox="0 0 1066.6667 800"
   xmlns="http://www.w3.org/2000/svg"
   xmlns:svg="http://www.w3.org/2000/svg">
  <defs
     id="defs1">
    <clipPath
       clipPathUnits="userSpaceOnUse"
       id="clipPath3">
      <path
         d="M 0,600 H 800 V 0 H 0 Z"
         transform="translate(-324.28221,-267.79791)"
         id="path3" />
    </clipPath>
    <clipPath
       clipPathUnits="userSpaceOnUse"
       id="clipPath5">
      <path
         d="M 0,600 H 800 V 0 H 0 Z"
         transform="translate(-122.87841,-327.45071)"
         id="path5" />
    </clipPath>
    <clipPath
       clipPathUnits="userSpaceOnUse"
       id="clipPath7">
      <path
         d="M 0,600 H 800 V 0 H 0 Z"
         transform="translate(-712.80472,-271.5088)"
         id="path7" />
    </clipPath>
    <clipPath
       clipPathUnits="userSpaceOnUse"
       id="clipPath9">
      <path
         d="M 0,600 H 800 V 0 H 0 Z"
         transform="translate(-351.53861,-237.95121)"
         id="path9" />
    </clipPath>
    <clipPath
       clipPathUnits="userSpaceOnUse"
       id="clipPath11">
      <path
         d="M 0,600 H 800 V 0 H 0 Z"
         transform="translate(-449.45701,-238.7695)"
         id="path11" />
    </clipPath>
    <clipPath
       clipPathUnits="userSpaceOnUse"
       id="clipPath13">
      <path
         d="M 0,600 H 800 V 0 H 0 Z"
         transform="translate(-559.43461,-321.01221)"
         id="path13" />
    </clipPath>
    <clipPath
       clipPathUnits="userSpaceOnUse"
       id="clipPath15">
      <path
         d="M 0,600 H 800 V 0 H 0 Z"
         transform="translate(-618.81152,-330.68851)"
         id="path15" />
    </clipPath>
    <clipPath
       clipPathUnits="userSpaceOnUse"
       id="clipPath17">
      <path
         d="M 0,600 H 800 V 0 H 0 Z"
         transform="translate(-400.26761,-237.8887)"
         id="path17" />
    </clipPath>
    <clipPath
       clipPathUnits="userSpaceOnUse"
       id="clipPath19">
      <path
         d="M 0,600 H 800 V 0 H 0 Z"
         transform="translate(-114.6084,-358.34331)"
         id="path19" />
    </clipPath>
    <clipPath
       clipPathUnits="userSpaceOnUse"
       id="clipPath21">
      <path
         d="M 0,600 H 800 V 0 H 0 Z"
         transform="translate(-602.89162,-373.29691)"
         id="path21" />
    </clipPath>
    <clipPath
       clipPathUnits="userSpaceOnUse"
       id="clipPath23">
      <path
         d="M 0,600 H 800 V 0 H 0 Z"
         transform="translate(-403.71971,-354.92331)"
         id="path23" />
    </clipPath>
  </defs>
  <g
     id="layer-MC0">
    <path
       id="path2"
       d="m 0,0 c 0.236,0.479 0.378,0.652 0.407,0.843 0.458,3.029 1.525,5.893 2.391,8.81 2.05,6.901 4.124,13.795 6.207,20.686 1.422,4.704 2.89,9.394 4.304,14.1 0.378,1.258 0.683,2.543 0.94,3.831 0.825,4.126 -0.731,6.31 -4.937,6.977 -1.084,0.172 -2.173,0.314 -3.254,0.469 -0.385,1.573 -0.323,2.998 -0.101,4.526 0.418,0.093 0.804,0.232 1.196,0.256 0.76,0.045 1.523,0.029 2.285,0.032 6.58,0.022 13.159,0.042 19.739,0.063 0.482,10e-4 0.965,0 1.551,0 0.092,-0.434 0.24,-0.817 0.242,-1.201 C 30.977,58.22 30.928,57.048 30.901,55.849 30.46,55.643 30.102,55.443 29.721,55.305 29.136,55.092 28.529,54.94 27.943,54.73 26.167,54.093 24.816,52.959 24.032,51.225 23.547,50.154 23.07,49.073 22.688,47.963 19.647,39.128 16.634,30.283 13.604,21.445 11.044,13.98 8.405,6.543 5.924,-0.947 3.052,-9.62 0.314,-18.338 -2.481,-27.035 c -0.063,-0.198 -0.115,-0.4 -0.181,-0.597 -0.575,-1.746 -0.655,-1.858 -2.466,-1.92 -4.707,-0.157 -9.415,-0.271 -14.123,-0.39 -0.547,-0.014 -1.095,0.053 -1.587,0.081 -0.741,0.616 -1.003,1.424 -1.298,2.186 -0.623,1.614 -1.202,3.245 -1.768,4.881 -2.807,8.111 -5.584,16.233 -8.414,24.337 -1.963,5.62 -4.003,11.213 -5.995,16.822 -0.506,1.427 -0.962,2.871 -1.508,4.511 -0.272,-0.397 -0.481,-0.589 -0.553,-0.822 -1.722,-5.624 -3.379,-11.269 -5.153,-16.877 -3.256,-10.295 -6.578,-20.57 -9.877,-30.852 -0.275,-0.856 -0.597,-1.698 -0.862,-2.557 -0.238,-0.773 -0.77,-1.107 -1.535,-1.161 -0.276,-0.019 -0.551,-0.064 -0.827,-0.074 -4.637,-0.175 -9.274,-0.35 -13.912,-0.51 -0.615,-0.021 -1.232,0.049 -1.966,0.082 -0.404,0.898 -0.855,1.751 -1.182,2.65 -1.493,4.098 -2.95,8.209 -4.422,12.313 -3.411,9.514 -6.871,19.01 -10.22,28.545 -3.786,10.778 -7.463,21.592 -11.212,32.381 -0.522,1.502 -1.172,2.959 -1.788,4.427 -1.151,2.749 -3.148,4.501 -6.1,5.107 -0.339,0.07 -0.671,0.169 -1.091,0.275 -0.437,1.462 -0.284,2.959 -0.191,4.415 0.578,0.537 1.233,0.341 1.831,0.342 6.234,0.004 12.467,-0.011 18.701,-0.023 7.619,-0.015 15.238,-0.027 22.857,-0.052 0.749,-0.002 1.524,0.112 2.28,-0.271 0.304,-1.583 0.276,-3.151 0.078,-4.795 -0.559,-0.202 -1.069,-0.388 -1.581,-0.57 -0.522,-0.185 -1.062,-0.328 -1.565,-0.555 -1.716,-0.772 -2.412,-1.968 -2.159,-3.82 0.122,-0.888 0.325,-1.775 0.6,-2.628 1.016,-3.163 2.075,-6.312 3.123,-9.466 3.689,-11.103 7.391,-22.201 11.059,-33.311 0.671,-2.033 1.203,-4.112 1.806,-6.191 0.485,0.012 0.501,0.422 0.557,0.682 1.696,7.868 4.444,15.424 6.832,23.088 0.927,2.974 1.8,5.965 2.737,8.935 0.284,0.899 0.312,1.756 0.013,2.643 -1.642,4.852 -3.255,9.713 -4.932,14.553 -0.382,1.105 -0.939,2.157 -1.487,3.196 -0.93,1.764 -2.422,2.804 -4.371,3.201 -0.74,0.151 -1.478,0.311 -2.335,0.492 0,1.122 -0.016,2.153 0.007,3.184 0.011,0.471 0.097,0.94 0.152,1.437 0.848,0.395 1.691,0.259 2.501,0.261 5.333,0.014 10.667,0.015 16,-0.003 8.589,-0.029 17.177,-0.074 25.766,-0.119 1.033,-0.005 2.066,-0.053 3.15,-0.082 0.564,-1.551 0.399,-3.056 0.423,-4.639 -0.473,-0.178 -0.909,-0.354 -1.353,-0.506 -0.917,-0.313 -1.862,-0.555 -2.752,-0.93 -1.771,-0.747 -2.413,-1.866 -2.19,-3.781 0.096,-0.822 0.261,-1.645 0.487,-2.442 1.232,-4.327 2.433,-8.664 3.757,-12.964 C -7.929,26.021 -5.057,16.98 -2.244,7.923 -1.648,6.006 -1.168,4.055 -0.629,2.12 -0.463,1.525 -0.278,0.935 0,0"
       style="fill:#000000;fill-opacity:1;fill-rule:nonzero;stroke:none"
       transform="matrix(1.3333333,0,0,-1.3333333,432.37627,442.93613)"
       clip-path="url(#clipPath3)" />
    <path
       id="path4"
       d="M 0,0 C 4.147,-1.82 8.31,-3.648 12.582,-5.523 12.03,-5.769 11.538,-5.997 11.038,-6.21 8.745,-7.189 6.922,-8.726 5.527,-10.79 c -1.095,-1.619 -1.945,-3.347 -2.496,-5.224 -2.1,-7.165 2.732,-16.043 10.585,-18.165 6.426,-1.736 13.135,1.775 15.76,6.127 0.614,1.016 1.13,2.06 1.384,3.224 0.067,0.307 0.154,0.61 0.32,1.265 0.239,-0.806 0.424,-1.255 0.502,-1.721 0.648,-3.917 1.918,-7.648 3.356,-11.328 1.335,-3.416 2.708,-6.818 4.075,-10.222 0.203,-0.505 0.464,-0.987 0.777,-1.645 1.231,1.493 1.454,3.254 2.152,4.788 0.717,1.572 1.317,3.2 1.916,4.823 0.575,1.558 1.108,3.131 1.613,4.713 0.525,1.649 1.049,3.301 1.472,4.977 0.424,1.672 0.723,3.376 1.119,5.267 0.226,-0.364 0.451,-0.591 0.519,-0.859 1.209,-4.767 4.54,-7.532 8.932,-9.05 4.618,-1.596 9.103,-0.807 13.064,1.953 4.198,2.926 6.256,7.152 6.211,12.272 -0.03,3.329 -1.054,6.403 -3.062,9.106 -1.391,1.87 -3.041,3.399 -5.322,4.127 -0.236,0.076 -0.427,0.293 -0.803,0.562 1.418,0.61 2.689,1.119 3.928,1.697 1.317,0.615 2.616,1.271 3.9,1.95 1.217,0.643 2.405,1.34 3.548,1.98 0.881,-0.295 1.322,-0.947 1.865,-1.462 5.706,-5.424 9.448,-12.057 11.923,-19.458 2.025,-6.055 2.649,-12.271 2.242,-18.638 -0.393,-6.145 -1.694,-12.061 -4.136,-17.701 -6.062,-14.002 -16.368,-23.615 -30.483,-29.228 -4.534,-1.802 -9.274,-2.82 -14.103,-3.344 -14.486,-1.576 -27.769,1.677 -39.702,10.135 -5.606,3.974 -10.215,8.885 -13.852,14.729 -5.517,8.867 -8.377,18.508 -8.34,28.941 0.039,11.075 3.311,21.132 10.058,29.971 1.551,2.032 3.318,3.9 4.994,5.835 C -0.427,-0.242 -0.224,-0.155 0,0"
       style="fill:#000000;fill-opacity:1;fill-rule:nonzero;stroke:none"
       transform="matrix(1.3333333,0,0,-1.3333333,163.83787,363.39907)"
       clip-path="url(#clipPath5)" />
    <path
       id="path6"
       d="M 0,0 C 0.894,-0.575 1.702,-1.078 2.49,-1.609 2.944,-1.915 3.365,-2.269 3.894,-2.67 3.731,-3.279 3.62,-3.882 3.414,-4.449 c -3.106,-8.558 -8.255,-15.579 -15.558,-21.074 -6.043,-4.548 -12.71,-7.559 -20.167,-8.774 -5.589,-0.91 -11.174,-0.778 -16.731,0.346 -3.877,0.784 -7.701,1.767 -11.297,3.445 -11.147,5.202 -18.606,13.697 -22.408,25.382 -2.463,7.569 -3.046,15.276 -1.779,23.171 1.484,9.253 5.057,17.536 11.095,24.685 5.305,6.282 12.005,10.612 19.757,13.282 9.307,3.206 18.799,3.791 28.463,1.88 3.764,-0.744 7.364,-1.914 10.785,-3.632 4.666,-2.345 8.579,-5.56 11.45,-9.977 2.325,-3.575 3.53,-7.509 3.71,-11.74 0.184,-4.309 -1.141,-8.185 -3.67,-11.656 -1.2,-1.649 -2.727,-2.935 -4.488,-3.954 -8.104,-4.694 -16.472,-2.231 -21.439,2.209 -3.508,3.133 -5.081,7.18 -5.068,11.849 0.007,2.361 0.179,4.705 1.178,6.909 1.488,3.285 3.802,5.746 7.108,7.245 0.693,0.313 1.401,0.612 2.044,1.01 1.237,0.764 1.516,1.608 1.161,3.007 -0.314,1.229 -1.088,2.065 -2.168,2.647 -1.297,0.699 -2.709,1.077 -4.148,1.288 -8.661,1.269 -15.514,-1.858 -20.566,-8.845 -3.783,-5.231 -5.551,-11.241 -6.079,-17.65 -0.418,-5.074 -0.192,-10.103 0.897,-15.078 1.739,-7.946 5.449,-14.755 11.722,-20.065 8.049,-6.814 20.002,-8.315 28.93,-4.484 5.676,2.435 10.019,6.333 13.069,11.69 C -0.55,-0.924 -0.306,-0.521 0,0"
       style="fill:#000000;fill-opacity:1;fill-rule:nonzero;stroke:none"
       transform="matrix(1.3333333,0,0,-1.3333333,950.40627,437.98827)"
       clip-path="url(#clipPath7)" />
    <path
       id="path8"
       d="m 0,0 c -0.473,1.59 -0.336,3.028 -0.461,4.54 1.153,0.268 2.16,0.465 3.146,0.739 0.997,0.278 2.005,0.558 2.951,0.968 1.369,0.595 2.188,1.69 2.321,3.198 0.128,1.448 0.25,2.901 0.255,4.352 0.032,8.312 0.036,16.624 0.037,24.935 0.003,24.104 0.003,48.208 -0.001,72.312 -10e-4,2.425 -0.016,4.85 -0.073,7.273 -0.026,1.105 -0.106,2.218 -0.275,3.309 -0.253,1.64 -1.181,2.811 -2.788,3.302 -1.189,0.363 -2.417,0.594 -3.63,0.879 -0.664,0.156 -1.332,0.3 -1.983,0.446 -0.324,1.49 -0.293,2.854 -0.198,4.34 0.707,0.185 1.352,0.407 2.015,0.519 10.132,1.721 19.941,4.665 29.7,7.806 1.185,0.382 2.375,0.752 3.57,1.103 1.07,0.315 2.162,0.427 3.37,0.253 0.104,-0.39 0.278,-0.77 0.296,-1.157 0.063,-1.383 0.096,-2.769 0.101,-4.154 C 38.429,112.452 38.504,89.941 38.57,67.43 38.62,50.392 38.646,33.352 38.712,16.312 38.72,14.169 38.929,12.027 39.008,9.883 39.096,7.508 40.485,6.282 42.609,5.639 43.458,5.381 44.396,5.391 45.218,4.815 45.474,3.323 45.337,1.831 45.305,0.487 45.097,0.291 45.053,0.233 44.994,0.199 44.937,0.165 44.865,0.141 44.799,0.139 44.316,0.125 43.833,0.11 43.351,0.109 28.95,0.071 14.55,0.036 0,0"
       style="fill:#000000;fill-opacity:1;fill-rule:nonzero;stroke:none"
       transform="matrix(1.3333333,0,0,-1.3333333,468.71813,482.73173)"
       clip-path="url(#clipPath9)" />
    <path
       id="path10"
       d="m 0,0 c -0.054,0.184 -0.16,0.38 -0.161,0.577 -0.042,9.764 -0.077,19.528 -0.104,29.293 0,0.194 0.105,0.389 0.2,0.722 1.191,0.11 2.401,0.222 3.685,0.342 0.262,-0.69 0.495,-1.255 0.693,-1.831 C 6.075,23.974 8.271,19.055 11.341,14.562 14.425,10.049 18.41,6.598 23.5,4.527 28.307,2.572 33.264,2.048 38.365,3.179 c 2.127,0.471 4.068,1.344 5.826,2.625 5.364,3.903 5.627,11.096 2.178,15.49 -0.719,0.916 -1.605,1.722 -2.506,2.469 -1.822,1.509 -3.867,2.699 -6.016,3.666 -4.356,1.957 -8.74,3.854 -13.129,5.735 -3.248,1.391 -6.506,2.76 -9.542,4.579 -1.661,0.996 -3.312,2.024 -4.883,3.153 -6.269,4.507 -9.763,10.616 -10.457,18.323 -0.549,6.102 0.618,11.847 3.485,17.256 1.346,2.539 3.112,4.736 5.272,6.628 4.877,4.267 10.536,6.823 16.931,7.788 6.595,0.993 13.12,0.581 19.587,-0.959 2.765,-0.659 5.449,-1.568 8.115,-2.556 2.61,-0.967 2.435,-1.153 3.962,1.245 0.445,0.7 0.901,1.392 1.362,2.103 1.692,0.229 3.328,-0.024 5.067,-0.159 0.063,-0.543 0.161,-1.004 0.163,-1.465 0.03,-8.726 0.049,-17.453 0.064,-26.179 10e-4,-0.404 -0.057,-0.809 -0.094,-1.296 -1.136,-0.377 -2.229,-0.179 -3.293,0.006 -0.342,0.059 -0.726,0.415 -0.907,0.738 -0.337,0.598 -0.557,1.265 -0.794,1.915 -1.507,4.124 -3.54,7.957 -6.161,11.49 -2.576,3.472 -5.802,6.126 -9.735,7.893 -4.511,2.025 -9.214,2.338 -14.025,1.359 C 28.362,84.93 27.907,84.749 27.446,84.597 19.949,82.12 19.008,73.61 22.229,68.925 c 1.321,-1.92 2.997,-3.432 4.934,-4.687 2.399,-1.553 5.026,-2.63 7.672,-3.662 4.32,-1.684 8.679,-3.274 12.972,-5.024 2.496,-1.019 4.929,-2.204 7.329,-3.436 2.974,-1.527 5.609,-3.559 8.041,-5.846 4.365,-4.106 6.795,-9.202 7.601,-15.093 C 71.241,27.8 71.313,24.419 70.643,21.047 68.792,11.717 63.351,5.249 54.866,1.202 50.446,-0.906 45.778,-2.131 40.913,-2.607 39.26,-2.77 37.603,-2.919 35.943,-2.98 28.919,-3.239 22.179,-1.82 15.605,0.543 14.042,1.105 12.451,1.598 10.908,2.209 9.311,2.843 7.937,2.521 6.66,1.473 6.126,1.033 5.564,0.622 5.062,0.147 4.413,-0.468 3.663,-0.722 2.79,-0.651 1.838,-0.574 0.833,-0.707 0,0"
       style="fill:#000000;fill-opacity:1;fill-rule:nonzero;stroke:none"
       transform="matrix(1.3333333,0,0,-1.3333333,599.276,481.64067)"
       clip-path="url(#clipPath11)" />
    <path
       id="path12"
       d="m 0,0 c -0.034,-0.646 -0.087,-1.185 -0.086,-1.724 0.016,-18.421 0.023,-36.843 0.072,-55.264 0.009,-2.975 0.147,-5.955 0.359,-8.923 0.092,-1.294 0.426,-2.593 0.818,-3.838 0.554,-1.76 1.838,-2.877 3.551,-3.536 2.027,-0.778 4.048,-0.799 6.086,-0.049 2.764,1.018 4.875,2.851 6.547,5.229 0.551,0.784 1.064,1.597 1.584,2.381 1.19,-0.484 3.23,-1.81 3.862,-2.455 0.466,-0.477 0.425,-0.995 0.169,-1.529 -1.023,-2.133 -2.224,-4.152 -3.9,-5.846 -3.44,-3.474 -7.582,-5.799 -12.221,-7.206 -7.746,-2.35 -15.55,-2.404 -23.362,-0.298 -0.999,0.269 -1.981,0.632 -2.933,1.039 -6.043,2.58 -9.568,7.186 -10.533,13.632 -0.459,3.07 -0.651,6.204 -0.683,9.311 -0.101,9.972 -0.08,19.945 -0.093,29.917 -0.011,8.726 -0.004,17.452 -0.009,26.178 0,0.889 -0.04,1.778 -0.065,2.781 -0.577,0.064 -1.036,0.155 -1.496,0.16 -2.216,0.025 -4.432,0.019 -6.647,0.042 -0.541,0.006 -1.08,0.078 -1.699,0.125 -0.296,1.871 -0.241,3.635 -0.044,5.457 0.497,0.176 0.941,0.353 1.397,0.49 4.657,1.401 9.098,3.323 13.409,5.556 4.92,2.548 9.125,6.036 12.783,10.151 3.402,3.827 5.839,8.23 7.138,13.22 0.085,0.325 0.195,0.643 0.313,1.025 1.834,0.169 3.606,0.101 5.504,-0.025 0.056,-0.545 0.144,-1.006 0.144,-1.467 C -0.033,26.292 -0.044,18.052 -0.046,9.811 -0.046,9.063 -0.005,8.316 0.021,7.45 0.681,7.398 1.21,7.32 1.739,7.323 5.964,7.34 10.188,7.373 14.412,7.4 15.1,7.404 15.786,7.401 16.458,7.401 17.094,6.182 16.866,4.983 16.914,3.834 16.959,2.746 17.094,1.642 16.871,0.424 15.468,0.129 14.09,0.326 12.73,0.276 11.277,0.223 9.822,0.21 8.368,0.178 6.984,0.148 5.6,0.119 4.215,0.084 2.848,0.05 1.474,0.149 0,0"
       style="fill:#000000;fill-opacity:1;fill-rule:nonzero;stroke:none"
       transform="matrix(1.3333333,0,0,-1.3333333,745.9128,371.98373)"
       clip-path="url(#clipPath13)" />
    <path
       id="path14"
       d="m 0,0 c 0.098,-0.355 0.215,-0.608 0.228,-0.866 0.036,-0.691 0.034,-1.384 0.035,-2.077 0.013,-19.733 0.018,-39.466 0.045,-59.2 0.007,-5.332 0.059,-10.663 0.136,-15.994 0.023,-1.589 0.206,-3.175 0.308,-4.762 0.139,-2.152 1.367,-3.411 3.339,-4.016 0.924,-0.283 1.882,-0.454 2.822,-0.689 0.265,-0.067 0.519,-0.18 0.87,-0.304 0.351,-1.543 0.266,-3.085 -0.024,-4.768 -0.657,-0.045 -1.261,-0.123 -1.864,-0.122 -10.733,0.02 -21.465,0.054 -32.198,0.07 -3.184,0.005 -6.369,-0.037 -9.554,-0.055 -0.685,-0.005 -1.37,-0.001 -1.997,-0.001 -0.644,1.667 -0.767,2.497 -0.673,4.351 0.531,0.602 1.34,0.631 2.035,0.906 1.093,0.43 2.226,0.765 3.295,1.247 1.596,0.718 2.435,1.989 2.448,3.769 0.012,1.662 0.046,3.324 0.044,4.986 -0.015,17.864 -0.032,35.728 -0.055,53.592 -0.002,1.454 -0.014,2.909 -0.073,4.361 -0.033,0.827 -0.127,1.657 -0.266,2.473 -0.329,1.939 -1.456,3.257 -3.28,3.955 -0.773,0.297 -1.58,0.507 -2.373,0.749 -0.463,0.142 -0.936,0.252 -1.393,0.407 -0.501,0.171 -0.826,0.529 -0.837,1.071 -0.022,1.032 -0.006,2.064 -0.006,3.237 0.389,0.15 0.807,0.382 1.253,0.468 3.261,0.632 6.534,1.205 9.793,1.852 7.466,1.484 14.925,3.009 22.391,4.497 C -3.734,-0.501 -1.913,-0.144 0,0"
       style="fill:#000000;fill-opacity:1;fill-rule:nonzero;stroke:none"
       transform="matrix(1.3333333,0,0,-1.3333333,825.082,359.082)"
       clip-path="url(#clipPath15)" />
    <path
       id="path16"
       d="M 0,0 C -0.613,1.613 -0.442,3.054 -0.375,4.638 0.211,4.8 0.79,4.96 1.369,5.119 c 1,0.277 2.024,0.488 2.996,0.841 1.552,0.562 2.54,1.672 2.742,3.348 0.14,1.166 0.253,2.343 0.256,3.516 0.045,14.27 0.085,28.539 0.087,42.81 10e-4,5.333 -0.09,10.667 -0.165,16 -0.015,1.105 -0.122,2.212 -0.23,3.314 -0.201,2.055 -1.338,3.459 -3.188,4.268 -0.884,0.387 -1.828,0.637 -2.752,0.923 -0.718,0.223 -1.447,0.406 -2.234,0.624 -0.245,1.471 -0.195,2.839 -0.193,4.286 0.423,0.169 0.779,0.385 1.162,0.453 10.501,1.873 20.89,4.28 31.323,6.484 1.692,0.358 3.401,0.646 5.106,0.94 0.462,0.079 0.941,0.06 1.493,0.091 0.095,-0.408 0.219,-0.727 0.235,-1.053 0.046,-0.968 0.063,-1.938 0.067,-2.908 0.078,-21.127 0.141,-42.255 0.239,-63.382 0.023,-4.918 0.167,-9.835 0.26,-14.752 0.008,-0.415 0.041,-0.83 0.062,-1.245 0.1,-2.067 1.244,-3.315 3.139,-3.93 0.789,-0.255 1.61,-0.409 2.415,-0.61 0.461,-0.115 0.92,-0.23 1.424,-0.356 C 45.929,3.19 45.764,1.715 45.471,0.285 44.735,-0.187 44.026,-0.022 43.352,-0.021 31.646,-0.008 19.938,0.018 8.231,0.034 6.223,0.036 4.214,0.011 2.205,0.001 1.517,-0.003 0.828,0 0,0"
       style="fill:#000000;fill-opacity:1;fill-rule:nonzero;stroke:none"
       transform="matrix(1.3333333,0,0,-1.3333333,533.69013,482.81507)"
       clip-path="url(#clipPath17)" />
    <path
       id="path18"
       d="m 0,0 c 0.219,-0.335 0.461,-0.657 0.652,-1.007 4.141,-7.578 10.427,-12.623 18.455,-15.592 1.231,-0.455 2.534,-0.717 3.759,-1.187 1.654,-0.633 3.189,-0.494 4.827,0.153 1.926,0.76 3.932,1.334 5.932,1.887 11.805,3.262 23.426,2.581 34.867,-1.7 0.389,-0.145 0.783,-0.281 1.162,-0.448 0.661,-0.293 1.322,-0.311 2.027,-0.155 6.611,1.457 12.638,4.079 17.603,8.814 2.728,2.602 5.085,5.476 6.492,9.034 0.146,0.371 0.406,0.698 0.61,1.039 0.2,-0.103 0.398,-0.148 0.406,-0.216 0.631,-5.226 0.279,-10.361 -1.475,-15.36 -2.312,-6.592 -6.574,-11.491 -12.854,-14.546 -3.234,-1.572 -6.558,-2.966 -9.864,-4.386 -2.546,-1.095 -5.063,-2.234 -7.474,-3.612 -5.64,-3.225 -9.599,-7.901 -11.88,-13.942 -1.515,-4.012 -2.794,-8.112 -4.182,-12.172 -0.237,-0.69 -0.296,-1.474 -1.024,-2.15 -0.321,0.872 -0.581,1.575 -0.839,2.279 -1.405,3.834 -2.814,7.667 -4.213,11.504 -0.834,2.284 -1.886,4.459 -3.179,6.521 -1.872,2.986 -4.313,5.399 -7.268,7.302 -2.101,1.352 -4.297,2.523 -6.609,3.475 -2.625,1.08 -5.263,2.132 -7.854,3.287 -1.768,0.788 -3.492,1.684 -5.189,2.615 -6.608,3.622 -10.447,9.345 -12.256,16.51 -0.989,3.915 -0.927,7.944 -1.039,11.944 C -0.271,-0.073 -0.136,-0.037 0,0"
       style="fill:#000000;fill-opacity:1;fill-rule:nonzero;stroke:none"
       transform="matrix(1.3333333,0,0,-1.3333333,152.8112,322.20893)"
       clip-path="url(#clipPath19)" />
    <path
       id="path20"
       d="m 0,0 c 3.993,0.127 7.649,-0.923 10.913,-3.262 4.13,-2.961 6.304,-7.091 6.995,-12.02 0.529,-3.767 0.155,-7.465 -1.576,-10.924 -2.799,-5.59 -7.349,-8.831 -13.456,-9.99 -8.069,-1.532 -16.435,2.602 -19.685,10.104 -3.088,7.132 -2.151,13.984 2.628,20.111 2.91,3.731 7.048,5.458 11.695,5.968 C -1.667,0.078 -0.829,0 0,0"
       style="fill:#000000;fill-opacity:1;fill-rule:nonzero;stroke:none"
       transform="matrix(1.3333333,0,0,-1.3333333,803.85547,302.2708)"
       clip-path="url(#clipPath21)" />
    <path
       id="path22"
       d="m 0,0 c 0.061,3.336 0.774,6.473 2.289,9.423 1.773,3.454 4.434,5.968 8.005,7.501 3.936,1.69 8.034,2.096 12.189,1.175 7.06,-1.564 12.314,-7.301 13.423,-14.443 0.563,-3.624 0.257,-7.141 -1.052,-10.602 -1.837,-4.856 -5.286,-8.018 -10.042,-9.836 -4.512,-1.726 -9.104,-1.707 -13.604,-0.064 -5.62,2.052 -9.062,6.173 -10.495,11.937 C 0.316,-3.312 0.229,-1.638 0,0"
       style="fill:#000000;fill-opacity:1;fill-rule:nonzero;stroke:none"
       transform="matrix(1.3333333,0,0,-1.3333333,538.29293,326.76893)"
       clip-path="url(#clipPath23)" />
  </g>
</svg>
